<?xml version="1.0"?>
<svg xmlns="http://www.w3.org/2000/svg" xmlns:xlink="http://www.w3.org/1999/xlink" width="212.748795" height="198.50853">
	<defs />
	<path d="M 222.46 -0 C 222.46 122.861, 122.861 222.46, -0 222.46, -122.861 222.46, -222.46 122.861, -222.46 -0, -222.46 -122.861, -122.861 -222.46, -0 -222.46, 122.861 -222.46, 222.46 -122.861, 222.46 -0 Z" stroke="none" fill="#0E5E19" fill-opacity="0.392156839" transform="matrix(0.416667 0 0 0.416667 99.2543 99.2543)" />
	<path d="M 222.46 -0 C 222.46 122.861, 122.861 222.46, -0 222.46, -122.861 222.46, -222.46 122.861, -222.46 -0, -222.46 -122.861, -122.861 -222.46, -0 -222.46, 122.861 -222.46, 222.46 -122.861, 222.46 -0 Z" fill="none" stroke="#000000" stroke-width="2.4000001" stroke-linecap="round" stroke-linejoin="round" transform="matrix(0.416667 0 0 0.416667 99.2543 99.2543)" />
	<path d="M 85.7927 -0 C 85.7927 47.382, 47.382 85.7927, -0 85.7927, -47.382 85.7927, -85.7927 47.382, -85.7927 -0, -85.7927 -47.382, -47.382 -85.7927, -0 -85.7927, 47.382 -85.7927, 85.7927 -47.382, 85.7927 -0 Z" stroke="none" fill="#297ED4" fill-opacity="0.392156839" transform="matrix(0.416667 0 0 0.416667 55.5589 62.7382)" />
	<path d="M 85.7927 -0 C 85.7927 47.382, 47.382 85.7927, -0 85.7927, -47.382 85.7927, -85.7927 47.382, -85.7927 -0, -85.7927 -47.382, -47.382 -85.7927, -0 -85.7927, 47.382 -85.7927, 85.7927 -47.382, 85.7927 -0 Z" fill="none" stroke="#000000" stroke-width="2.4000001" stroke-linecap="round" stroke-linejoin="round" stroke-dasharray="1.212, 3.588" transform="matrix(0.416667 0 0 0.416667 55.5589 62.7382)" />
	<path d="M 87.0159 -0 C 87.0159 48.0575, 48.0575 87.0159, -0 87.0159, -48.0575 87.0159, -87.0159 48.0575, -87.0159 -0, -87.0159 -48.0575, -48.0575 -87.0159, -0 -87.0159, 48.0575 -87.0159, 87.0159 -48.0575, 87.0159 -0 Z" stroke="none" fill="#297ED4" fill-opacity="0.392156839" transform="matrix(0.416667 0 0 0.416667 91.6258 43.3372)" />
	<path d="M 87.0159 -0 C 87.0159 48.0575, 48.0575 87.0159, -0 87.0159, -48.0575 87.0159, -87.0159 48.0575, -87.0159 -0, -87.0159 -48.0575, -48.0575 -87.0159, -0 -87.0159, 48.0575 -87.0159, 87.0159 -48.0575, 87.0159 -0 Z" fill="none" stroke="#000000" stroke-width="2.4000001" stroke-linecap="round" stroke-linejoin="round" stroke-dasharray="1.212, 3.588" transform="matrix(0.416667 0 0 0.416667 91.6258 43.3372)" />
	<path d="M 87.0158 -0 C 87.0158 48.0575, 48.0575 87.0158, -0 87.0158, -48.0575 87.0158, -87.0158 48.0575, -87.0158 -0, -87.0158 -48.0575, -48.0575 -87.0158, -0 -87.0158, 48.0575 -87.0158, 87.0158 -48.0575, 87.0158 -0 Z" stroke="none" fill="#297ED4" fill-opacity="0.392156839" transform="matrix(0.416667 0 0 0.416667 126.385 49.7682)" />
	<path d="M 87.0158 -0 C 87.0158 48.0575, 48.0575 87.0158, -0 87.0158, -48.0575 87.0158, -87.0158 48.0575, -87.0158 -0, -87.0158 -48.0575, -48.0575 -87.0158, -0 -87.0158, 48.0575 -87.0158, 87.0158 -48.0575, 87.0158 -0 Z" fill="none" stroke="#000000" stroke-width="2.4000001" stroke-linecap="round" stroke-linejoin="round" stroke-dasharray="1.212, 3.588" transform="matrix(0.416667 0 0 0.416667 126.385 49.7682)" />
	<path d="M 87.016 -0 C 87.016 48.0576, 48.0576 87.016, -0 87.016, -48.0576 87.016, -87.016 48.0576, -87.016 -0, -87.016 -48.0576, -48.0576 -87.016, -0 -87.016, 48.0576 -87.016, 87.016 -48.0576, 87.016 -0 Z" stroke="none" fill="#297ED4" fill-opacity="0.392156839" transform="matrix(0.416667 0 0 0.416667 154.955 90.1818)" />
	<path d="M 87.016 -0 C 87.016 48.0576, 48.0576 87.016, -0 87.016, -48.0576 87.016, -87.016 48.0576, -87.016 -0, -87.016 -48.0576, -48.0576 -87.016, -0 -87.016, 48.0576 -87.016, 87.016 -48.0576, 87.016 -0 Z" fill="none" stroke="#000000" stroke-width="2.4000001" stroke-linecap="round" stroke-linejoin="round" stroke-dasharray="1.212, 3.588" transform="matrix(0.416667 0 0 0.416667 154.955 90.1818)" />
	<path d="M 87.0158 -0 C 87.0158 48.0575, 48.0575 87.0158, -0 87.0158, -48.0575 87.0158, -87.0158 48.0575, -87.0158 -0, -87.0158 -48.0575, -48.0575 -87.0158, -0 -87.0158, 48.0575 -87.0158, 87.0158 -48.0575, 87.0158 -0 Z" stroke="none" fill="#297ED4" fill-opacity="0.392156839" transform="matrix(0.416667 0 0 0.416667 141.06 137.165)" />
	<path d="M 87.0158 -0 C 87.0158 48.0575, 48.0575 87.0158, -0 87.0158, -48.0575 87.0158, -87.0158 48.0575, -87.0158 -0, -87.0158 -48.0575, -48.0575 -87.0158, -0 -87.0158, 48.0575 -87.0158, 87.0158 -48.0575, 87.0158 -0 Z" fill="none" stroke="#000000" stroke-width="2.4000001" stroke-linecap="round" stroke-linejoin="round" stroke-dasharray="1.212, 3.588" transform="matrix(0.416667 0 0 0.416667 141.06 137.165)" />
	<path d="M 87.0159 -0 C 87.0159 48.0575, 48.0575 87.0159, -0 87.0159, -48.0575 87.0159, -87.0159 48.0575, -87.0159 -0, -87.0159 -48.0575, -48.0575 -87.0159, -0 -87.0159, 48.0575 -87.0159, 87.0159 -48.0575, 87.0159 -0 Z" stroke="none" fill="#297ED4" fill-opacity="0.392156839" transform="matrix(0.416667 0 0 0.416667 95.7152 155.578)" />
	<path d="M 87.0159 -0 C 87.0159 48.0575, 48.0575 87.0159, -0 87.0159, -48.0575 87.0159, -87.0159 48.0575, -87.0159 -0, -87.0159 -48.0575, -48.0575 -87.0159, -0 -87.0159, 48.0575 -87.0159, 87.0159 -48.0575, 87.0159 -0 Z" fill="none" stroke="#000000" stroke-width="2.4000001" stroke-linecap="round" stroke-linejoin="round" stroke-dasharray="1.212, 3.588" transform="matrix(0.416667 0 0 0.416667 95.7152 155.578)" />
	<path d="M 87.0159 -0 C 87.0159 48.0575, 48.0575 87.0159, -0 87.0159, -48.0575 87.0159, -87.0159 48.0575, -87.0159 -0, -87.0159 -48.0575, -48.0575 -87.0159, -0 -87.0159, 48.0575 -87.0159, 87.0159 -48.0575, 87.0159 -0 Z" stroke="none" fill="#297ED4" fill-opacity="0.392156839" transform="matrix(0.416667 0 0 0.416667 59.1949 139.006)" />
	<path d="M 87.0159 -0 C 87.0159 48.0575, 48.0575 87.0159, -0 87.0159, -48.0575 87.0159, -87.0159 48.0575, -87.0159 -0, -87.0159 -48.0575, -48.0575 -87.0159, -0 -87.0159, 48.0575 -87.0159, 87.0159 -48.0575, 87.0159 -0 Z" fill="none" stroke="#000000" stroke-width="2.4000001" stroke-linecap="round" stroke-linejoin="round" stroke-dasharray="1.212, 3.588" transform="matrix(0.416667 0 0 0.416667 59.1949 139.006)" />
	<path d="M 87.0158 -0 C 87.0158 48.0575, 48.0575 87.0158, -0 87.0158, -48.0575 87.0158, -87.0158 48.0575, -87.0158 -0, -87.0158 -48.0575, -48.0575 -87.0158, -0 -87.0158, 48.0575 -87.0158, 87.0158 -48.0575, 87.0158 -0 Z" stroke="none" fill="#297ED4" fill-opacity="0.392156839" transform="matrix(0.416667 0 0 0.416667 44.3513 112.315)" />
	<path d="M 87.0158 -0 C 87.0158 48.0575, 48.0575 87.0158, -0 87.0158, -48.0575 87.0158, -87.0158 48.0575, -87.0158 -0, -87.0158 -48.0575, -48.0575 -87.0158, -0 -87.0158, 48.0575 -87.0158, 87.0158 -48.0575, 87.0158 -0 Z" fill="none" stroke="#000000" stroke-width="2.4000001" stroke-linecap="round" stroke-linejoin="round" stroke-dasharray="1.212, 3.588" transform="matrix(0.416667 0 0 0.416667 44.3513 112.315)" />
	<path d="M 136.667 -0 C 136.667 75.4793, 75.4793 136.667, -0 136.667, -75.4793 136.667, -136.667 75.4793, -136.667 -0, -136.667 -75.4793, -75.4793 -136.667, -0 -136.667, 75.4793 -136.667, 136.667 -75.4793, 136.667 -0 Z" stroke="none" fill="#0083DB" transform="matrix(0.416667 0 0 0.416667 99.2543 99.2543)" />
	<path d="M 136.667 -0 C 136.667 75.4793, 75.4793 136.667, -0 136.667, -75.4793 136.667, -136.667 75.4793, -136.667 -0, -136.667 -75.4793, -75.4793 -136.667, -0 -136.667, 75.4793 -136.667, 136.667 -75.4793, 136.667 -0 Z" fill="none" stroke="#000000" stroke-width="2.4000001" stroke-linecap="round" stroke-linejoin="round" transform="matrix(0.416667 0 0 0.416667 99.2543 99.2543)" />
	<ellipse cx="815.91169452667236" cy="389.00001239776611" rx="6.3000001907348633" ry="6.3000001907348633" stroke="none" fill="#000000" transform="matrix(0.416667 0 0 0.416667 -240.709 -62.8291)" />
	<g transform="matrix(1 0 -0 1 101.907 100.382)">
		<svg width="23.9302292" height="35.9036179">
			<defs />
			<path d="M 6.35547 9.21695 C 6.35547 9.60135, 6.30067 9.98411, 6.19026 10.3656, 6.08026 10.7476, 5.88356 11.0886, 5.60058 11.3892, 5.34458 11.6775, 5.03584 11.8902, 4.67393 12.0272, 4.31243 12.1646, 3.94071 12.2333, 3.55876 12.2333, 2.57486 12.2333, 1.79543 12.0173, 1.22006 11.5855 L 0.647142 12.1417 C 0.589073 12.194, 0.5171 12.2247, 0.431633 12.2333 L 0.310179 12.2333 C 0.234117 12.2333, 0.163371 12.2038, 0.0979413 12.1449, 0.0329206 12.086, 0.000205755 12.0132, 0.000205755 11.9257 L 0.000205755 9.11226 C 0.000205755 9.03865, 0.0316938 8.96872, 0.0946699 8.90329, 0.157646 8.83786, 0.229619 8.80515, 0.310179 8.80474 L 0.586619 8.80474 C 0.66309 8.80515, 0.735063 8.83786, 0.802537 8.90329, 0.870012 8.96872, 0.903544 9.03865, 0.903544 9.11226, 0.903544 9.83689, 1.144 10.393, 1.6245 10.7811, 2.10541 11.1696, 2.74989 11.3635, 3.55876 11.363, 3.92721 11.3635, 4.21715 11.2391, 4.42816 10.9901, 4.54961 10.8511, 4.63713 10.6887, 4.6911 10.5031, 4.74508 10.3178, 4.77167 10.1182, 4.77167 9.90396, 4.77167 9.55964, 4.68538 9.25457, 4.5124 8.98835, 4.33942 8.72254, 4.10469 8.54997, 3.8078 8.47105 L 2.14998 8.07193 C 1.82692 8.00241, 1.53371 7.87728, 1.27077 7.69612, 1.00823 7.51537, 0.783317 7.30477, 0.596843 7.06472, 0.410368 6.82508, 0.264378 6.5556, 0.158873 6.25666, 0.0533674 5.95814, 0.000205755 5.64939, 0.000205755 5.33042, 0.000205755 4.95993, 0.0578657 4.5972, 0.172368 4.24143, 0.28687 3.88606, 0.483568 3.56628, 0.761644 3.28248, 1.03154 3.00808, 1.34479 2.81097, 1.7022 2.69075, 2.0596 2.57093, 2.42438 2.51081, 2.79692 2.51041, 3.63728 2.51081, 4.29771 2.71814, 4.77862 3.13199 L 5.33109 2.59546 C 5.39406 2.53903, 5.47054 2.51081, 5.56009 2.51041 L 5.66805 2.51041 C 5.74452 2.51081, 5.8165 2.53944, 5.88356 2.59587, 5.95104 2.65271, 5.98457 2.72469, 5.98457 2.81138 L 5.98457 5.62486 C 5.98457 5.69929, 5.95104 5.76921, 5.88356 5.83464, 5.8165 5.90007, 5.74452 5.93279, 5.66805 5.93238 L 5.39161 5.93238 C 5.20759 5.93279, 5.10209 5.83914, 5.0751 5.65103, 5.00762 4.91863, 4.78189 4.34734, 4.39749 3.93718, 4.0135 3.52743, 3.47984 3.32214, 2.79692 3.32173, 2.62639 3.32214, 2.46363 3.34954, 2.30865 3.40393, 2.15366 3.45873, 2.02444 3.54256, 1.92098 3.65543, 1.80443 3.77811, 1.72019 3.92205, 1.66825 4.08767, 1.61673 4.2537, 1.59056 4.4324, 1.59056 4.62378, 1.59056 4.92967, 1.67725 5.19997, 1.85023 5.43552, 2.02321 5.67107, 2.2514 5.8236, 2.53438 5.89312 L 4.17871 6.29224 C 4.52017 6.37117, 4.82442 6.50652, 5.09186 6.69831, 5.35931 6.89051, 5.58586 7.11706, 5.77233 7.37878, 5.95881 7.6405, 6.10275 7.92839, 6.20376 8.24245, 6.30517 8.55652, 6.35547 8.88162, 6.35547 9.21695 Z" stroke="none" fill="#000000" />
			<rect />
		</svg>
	</g>
	<g transform="matrix(1 0 -0 1 141.698 78.9112)">
		<svg width="29.9581337" height="35.9036179">
			<defs />
			<path d="M 8.15234 11.8341 C 8.12535 11.9564, 8.05133 12.0173, 7.93028 12.0173 L 0.215307 12.0173 C 0.166235 12.0173, 0.1143 12.0002, 0.0603205 11.965, 0.0202448 11.9216, -0.000201941 11.8673, -0.000201941 11.8014, -0.000201941 11.7409, 0.0157465 11.6951, 0.0468256 11.664 L 3.37515 7.90181, 0.0398737 3.17125 C 0.0132929 3.1324, -0.000201941 3.09314, -0.000201941 3.05347 L -0.000201941 2.94878 C -0.000201941 2.80525, 0.0717707 2.73328, 0.215307 2.73287 L 7.93028 2.73287 C 8.04724 2.73328, 8.12126 2.79216, 8.15234 2.90953 L 8.53633 5.65757 C 8.53633 5.77576, 8.46926 5.84977, 8.33431 5.88003 L 8.27379 5.88003 C 8.15683 5.88044, 8.08527 5.81951, 8.05828 5.69683, 8.0043 5.29607, 7.91352 4.91781, 7.78552 4.56204, 7.65752 4.20667, 7.45428 3.91755, 7.17539 3.69468, 7.04085 3.5904, 6.8691 3.51107, 6.66013 3.45627, 6.45157 3.40189, 6.21889 3.35936, 5.9629 3.32869, 5.7069 3.29842, 5.437 3.28084, 5.15402 3.27634, 4.87104 3.27225, 4.59255 3.2698, 4.31857 3.26939 L 1.65721 3.26939, 4.46701 7.24752 C 4.503 7.28268, 4.52058 7.32848, 4.52058 7.38492, 4.52058 7.42458, 4.503 7.46834, 4.46701 7.51578 L 1.0708 11.3369, 4.20406 11.3369 C 4.48705 11.3373, 4.77576 11.3352, 5.06978 11.3307, 5.36421 11.3266, 5.64597 11.3091, 5.91546 11.2784, 6.18536 11.2481, 6.42908 11.2044, 6.64664 11.1475, 6.8646 11.0911, 7.04085 11.0101, 7.17539 10.905, 7.45837 10.683, 7.66161 10.3975, 7.78511 10.0483, 7.90861 9.69949, 7.9998 9.32654, 8.05828 8.92906, 8.05828 8.80311, 8.13025 8.73972, 8.27379 8.73931 L 8.33431 8.73931 C 8.46476 8.76589, 8.53224 8.83582, 8.53633 8.94869 Z" stroke="none" fill="#000000" />
			<rect />
		</svg>
	</g>
	<g transform="matrix(1 0 -0 1 193.067 65.0877)">
		<svg width="38.9999924" height="35.9036179">
			<defs />
			<path d="M 8.15234 11.8341 C 8.12535 11.9564, 8.05133 12.0173, 7.93028 12.0173 L 0.215307 12.0173 C 0.166235 12.0173, 0.1143 12.0002, 0.0603205 11.965, 0.0202448 11.9216, -0.000201941 11.8673, -0.000201941 11.8014, -0.000201941 11.7409, 0.0157465 11.6951, 0.0468256 11.664 L 3.37515 7.90181, 0.0398737 3.17125 C 0.0132929 3.1324, -0.000201941 3.09314, -0.000201941 3.05347 L -0.000201941 2.94878 C -0.000201941 2.80525, 0.0717707 2.73328, 0.215307 2.73287 L 7.93028 2.73287 C 8.04724 2.73328, 8.12126 2.79216, 8.15234 2.90953 L 8.53633 5.65757 C 8.53633 5.77576, 8.46926 5.84977, 8.33431 5.88003 L 8.27379 5.88003 C 8.15683 5.88044, 8.08527 5.81951, 8.05828 5.69683, 8.0043 5.29607, 7.91352 4.91781, 7.78552 4.56204, 7.65752 4.20667, 7.45428 3.91755, 7.17539 3.69468, 7.04085 3.5904, 6.8691 3.51107, 6.66013 3.45627, 6.45157 3.40189, 6.21889 3.35936, 5.9629 3.32869, 5.7069 3.29842, 5.437 3.28084, 5.15402 3.27634, 4.87104 3.27225, 4.59255 3.2698, 4.31857 3.26939 L 1.65721 3.26939, 4.46701 7.24752 C 4.503 7.28268, 4.52058 7.32848, 4.52058 7.38492, 4.52058 7.42458, 4.503 7.46834, 4.46701 7.51578 L 1.0708 11.3369, 4.20406 11.3369 C 4.48705 11.3373, 4.77576 11.3352, 5.06978 11.3307, 5.36421 11.3266, 5.64597 11.3091, 5.91546 11.2784, 6.18536 11.2481, 6.42908 11.2044, 6.64664 11.1475, 6.8646 11.0911, 7.04085 11.0101, 7.17539 10.905, 7.45837 10.683, 7.66161 10.3975, 7.78511 10.0483, 7.90861 9.69949, 7.9998 9.32654, 8.05828 8.92906, 8.05828 8.80311, 8.13025 8.73972, 8.27379 8.73931 L 8.33431 8.73931 C 8.46476 8.76589, 8.53224 8.83582, 8.53633 8.94869 Z" stroke="none" fill="#000000" />
			<path d="M 9.98558 7.22789 C 9.9496 7.32848, 9.88907 7.37878, 9.80361 7.37837 L 9.74963 7.37837, 9.70914 7.35875 C 9.62408 7.33748, 9.57665 7.27859, 9.56765 7.18209 L 9.56765 7.13628, 10.2485 2.91607 C 10.28 2.71569, 10.3753 2.56439, 10.5348 2.46174, 10.6943 2.35951, 10.855 2.30798, 11.0165 2.30757, 11.1915 2.30798, 11.333 2.36237, 11.441 2.47115, 11.5085 2.53699, 11.542 2.62409, 11.542 2.73287, 11.542 2.81179, 11.522 2.90339, 11.4815 3.00767 Z" stroke="none" fill="#000000" />
			<rect />
		</svg>
	</g>
</svg>
