<?xml version="1.0"?>
<svg xmlns="http://www.w3.org/2000/svg" xmlns:xlink="http://www.w3.org/1999/xlink" width="206.818192" height="125.454552">
	<defs>
		<marker id="CustomMarker-01" markerUnits="strokeWidth" markerWidth="15.000001" markerHeight="9" viewBox="-15 -4.5 15 9" orient="auto-start-reverse">
			<path d="M 0 -0 L -10 -3, -8 -0.5, -8 0.5, -10 3 Z" fill="#000000" stroke="#000000" stroke-linejoin="round" />
		</marker>
		<marker id="CustomMarker-02" markerUnits="strokeWidth" markerWidth="15.000001" markerHeight="9" viewBox="-15 -4.5 15 9" orient="auto-start-reverse">
			<path d="M 0 -0 L -10 -3, -8 -0.5, -8 0.5, -10 3 Z" fill="#000000" stroke="#000000" stroke-linejoin="round" />
		</marker>
		<marker id="CustomMarker-03" markerUnits="strokeWidth" markerWidth="15.000001" markerHeight="9" viewBox="-15 -4.5 15 9" orient="auto-start-reverse">
			<path d="M 0 -0 L -10 -3, -8 -0.5, -8 0.5, -10 3 Z" fill="#000000" stroke="#000000" stroke-linejoin="round" />
		</marker>
		<marker id="CustomMarker-04" markerUnits="strokeWidth" markerWidth="15.000001" markerHeight="9" viewBox="-15 -4.5 15 9" orient="auto-start-reverse">
			<path d="M 0 -0 L -10 -3, -8 -0.5, -8 0.5, -10 3 Z" fill="#000000" stroke="#000000" stroke-linejoin="round" />
		</marker>
		<marker id="CustomMarker-05" markerUnits="strokeWidth" markerWidth="15.000001" markerHeight="9" viewBox="-15 -4.5 15 9" orient="auto-start-reverse">
			<path d="M 0 -0 L -10 -3, -8 -0.5, -8 0.5, -10 3 Z" fill="#000000" stroke="#000000" stroke-linejoin="round" />
		</marker>
	</defs>
	<path d="M -204.337 0 L 204.336 0" fill="none" stroke="#000000" stroke-width="2.20000005" stroke-linecap="round" stroke-linejoin="round" marker-end="url(#CustomMarker-01)" transform="matrix(0.454545 0 0 0.454545 105.724 59.2634)" />
	<path d="M -72.8635 -50.8505 L 72.8638 50.8508" fill="none" stroke="#000000" stroke-width="2.20000005" stroke-linecap="round" stroke-linejoin="round" marker-end="url(#CustomMarker-02)" transform="matrix(0.454545 0 0 0.454545 41.7882 36.1494)" />
	<path d="M -10.5999 -67.2022 L 10.5999 67.2021" fill="none" stroke="#000000" stroke-width="2.20000005" stroke-linecap="round" stroke-linejoin="round" marker-end="url(#CustomMarker-03)" transform="matrix(0.454545 0 0 0.454545 79.7262 89.8099)" />
	<path d="M -73.4232 -51.2413 L 73.423 51.2416" fill="none" stroke="#000000" stroke-width="2.20000005" stroke-linecap="round" stroke-linejoin="round" marker-end="url(#CustomMarker-04)" transform="matrix(0.454545 0 0 0.454545 111.483 35.9718)" />
	<path d="M -9.87573 -62.6141 L 9.87555 62.6141" fill="none" stroke="#000000" stroke-width="2.20000005" stroke-linecap="round" stroke-linejoin="round" marker-end="url(#CustomMarker-05)" transform="matrix(0.454545 0 0 0.454545 148.2 87.7244)" />
	<path d="M -25.2012 36.1105 L 25.2013 -36.1102" fill="none" stroke="#000000" stroke-width="1.10000002" stroke-linecap="round" stroke-linejoin="round" stroke-dasharray="3.8555, 2.7445" transform="matrix(0.454545 0 0 0.454545 86.3632 42.8496)" />
	<path d="M -72.1624 11.382 L 72.1624 -11.3827" fill="none" stroke="#000000" stroke-width="1.10000002" stroke-linecap="round" stroke-linejoin="round" stroke-dasharray="3.8555, 2.7445" transform="matrix(0.454545 0 0 0.454545 110.91 64.8732)" />
	<g transform="matrix(1 0 -0 1 65.5556 58.9051)">
		<svg width="21.0837173" height="23.9844513">
			<defs />
			<path d="M 5.79642 7.25359 C 5.35182 7.23543, 4.9244 7.22611, 4.51465 7.22611 L 4.50655 7.22611 C 4.05362 7.22611, 3.57786 7.23543, 3.07904 7.25359 L 3.07904 6.73146, 3.73416 6.73146, 3.38648 5.78534, 1.67999 5.78534, 1.34434 6.7079, 1.34434 6.70398 C 1.34434 6.68067, 1.34164 6.66766, 1.33624 6.66472, 1.38237 6.67797, 1.42678 6.68975, 1.46972 6.70005, 1.54259 6.71085, 1.61669 6.7187, 1.69226 6.72385, 1.76783 6.72925, 1.86622 6.7317, 1.98743 6.73146 L 1.98743 7.25359 C 1.64515 7.23543, 1.32839 7.22611, 1.03714 7.22611 L 0.91569 7.22611 C 0.638186 7.22611, 0.332221 7.23543, -0.00196134 7.25359 L -0.00196134 6.73146, 0.333448 6.73146 C 0.417116 6.7317, 0.50471 6.72385, 0.596475 6.7079, 0.631562 6.703, 0.663949 6.69637, 0.693393 6.68852, 0.723081 6.68067, 0.737803 6.67551, 0.737803 6.67257 L 2.54121 1.67898 C 2.5628 1.62426, 2.59936 1.57862, 2.65064 1.54182, 2.70192 1.50526, 2.7613 1.48686, 2.82853 1.48661 L 2.97795 1.48661 C 3.03733 1.48686, 3.09278 1.50526, 3.14382 1.54182, 3.1951 1.57862, 3.23141 1.62426, 3.253 1.67898 L 5.0807 6.73146, 5.79642 6.73146, 5.79642 7.25359 Z M 2.53728 3.42202 L 1.87015 5.26714, 3.20442 5.26714 Z" stroke="none" fill="#000000" />
			<rect />
		</svg>
	</g>
	<g transform="matrix(1 0 -0 1 78.8155 70.6097)">
		<svg width="21.0837173" height="23.9844513">
			<defs />
			<path d="M 5.28422 5.67542 C 5.28422 5.89551, 5.24129 6.10505, 5.15492 6.30379, 5.0688 6.50278, 4.94219 6.67674, 4.77485 6.82568, 4.58347 6.98025, 4.37001 7.08968, 4.13422 7.15372, 3.89842 7.21776, 3.6592 7.24966, 3.41653 7.24966 L 0.000368714 7.24966, 0.000368714 6.73146, 0.776692 6.73146, 0.776692 2.11081, 0.000368714 2.11081, 0.000368714 1.59261, 3.18614 1.59261 C 3.4288 1.59285, 3.66729 1.6223, 3.90186 1.68119, 4.13642 1.74007, 4.34793 1.84141, 4.53636 1.98519, 4.70615 2.11621, 4.83497 2.27545, 4.92256 2.46242, 5.01016 2.64963, 5.05383 2.84641, 5.05383 3.053, 5.05383 3.25223, 5.00868 3.43871, 4.91839 3.61267, 4.8281 3.78688, 4.70076 3.93385, 4.53636 4.05407, 4.31554 4.2035, 4.20905 4.27686, 4.21715 4.27392, 4.10919 4.26116, 4.13814 4.28398, 4.30401 4.34286, 4.46987 4.40175, 4.62543 4.48738, 4.77093 4.59976, 4.94072 4.73078, 5.0688 4.89051, 5.15492 5.07895, 5.24129 5.26739, 5.28422 5.46637, 5.28422 5.67542 Z M 3.73182 3.053 C 3.73182 2.92762, 3.72324 2.80543, 3.70557 2.68618, 3.68815 2.56718, 3.6457 2.45653, 3.57823 2.35421, 3.53529 2.28649, 3.47812 2.22883, 3.40647 2.18172, 3.33507 2.13461, 3.26171 2.11106, 3.18614 2.11081 L 2.00571 2.11081, 2.00571 4.09333, 2.95967 4.09333 C 3.07033 4.09358, 3.17289 4.06953, 3.26711 4.02095, 3.36133 3.97261, 3.445 3.90391, 3.51762 3.8146, 3.59859 3.71008, 3.65453 3.59255, 3.68545 3.46153, 3.71637 3.33075, 3.73182 3.19457, 3.73182 3.053 Z M 3.91388 5.67542 C 3.91388 5.52379, 3.90382 5.37608, 3.8837 5.23205, 3.86358 5.08827, 3.81549 4.95332, 3.73992 4.82745, 3.69158 4.73863, 3.62975 4.66625, 3.55418 4.60982, 3.47861 4.55363, 3.39372 4.52541, 3.29925 4.52517 L 2.00571 4.52517, 2.00571 6.73146, 3.18614 6.73146 C 3.2941 6.7317, 3.39372 6.70618, 3.48524 6.65515, 3.577 6.60411, 3.65233 6.53811, 3.7117 6.45665, 3.78997 6.34182, 3.84322 6.21743, 3.87143 6.08395, 3.8999 5.95047, 3.91388 5.8143, 3.91388 5.67542 Z" stroke="none" fill="#000000" />
			<rect />
		</svg>
	</g>
	<g transform="matrix(1 0 -0 1 96.7827 13.8247)">
		<svg width="21.0837173" height="23.9844513">
			<defs />
			<path d="M 5.19528 5.29855 C 5.19528 5.5866, 5.13689 5.85503, 5.0196 6.10358, 4.90232 6.35237, 4.74529 6.56756, 4.54851 6.74937, 4.35173 6.93143, 4.1206 7.07521, 3.85512 7.18096, 3.58964 7.28696, 3.3087 7.33995, 3.0123 7.33995, 2.61335 7.33995, 2.22273 7.27665, 1.83997 7.1498, 1.4572 7.02295, 1.12032 6.8193, 0.829323 6.53909, 0.535626 6.25938, 0.324124 5.93354, 0.194574 5.56182, 0.0652682 5.19034, 0.000492841 4.81077, 0.000492841 4.4231, 0.000492841 4.03592, 0.0652682 3.65659, 0.194574 3.28487, 0.324124 2.91339, 0.535626 2.58608, 0.829323 2.30318, 1.11787 2.02346, 1.45328 1.82055, 1.83604 1.69493, 2.2188 1.5693, 2.61089 1.50649, 3.0123 1.50624, 3.28196 1.50649, 3.53124 1.55237, 3.76041 1.64389, 3.98958 1.73566, 4.17801 1.84803, 4.32621 1.98126 L 4.81939 1.5455 C 4.85448 1.51949, 4.89496 1.50649, 4.9406 1.50624 L 5.00537 1.50624 C 5.13198 1.50649, 5.19528 1.5666, 5.19528 1.68683 L 5.19528 3.64187 C 5.19528 3.68652, 5.17786 3.72848, 5.14278 3.76774, 5.10793 3.807, 5.06205 3.82662, 5.00537 3.82638 L 4.79927 3.82638 C 4.68886 3.82662, 4.62531 3.77044, 4.60911 3.65757, 4.58752 3.43797, 4.53698 3.22794, 4.45748 3.02773, 4.37798 2.82751, 4.27444 2.65282, 4.14636 2.50364, 4.01828 2.35446, 3.87156 2.23742, 3.70569 2.15228, 3.53983 2.06738, 3.35875 2.02469, 3.16197 2.02445, 2.89257 2.02469, 2.63715 2.07646, 2.39596 2.17976, 2.15477 2.2833, 1.95725 2.4369, 1.80341 2.64079, 1.62037 2.88174, 1.50922 3.15532, 1.46996 3.46153, 1.43095 3.76774, 1.41132 4.08843, 1.41132 4.4231, 1.41132 4.58823, 1.41549 4.75115, 1.42359 4.9121, 1.43169 5.07306, 1.44911 5.2296, 1.4761 5.38123, 1.50309 5.53311, 1.54357 5.67837, 1.59755 5.817, 1.65153 5.95587, 1.72268 6.08395, 1.8115 6.20148, 1.96265 6.40586, 2.15869 6.5597, 2.39988 6.663, 2.64107 6.76654, 2.89772 6.81807, 3.17007 6.81782, 3.37495 6.81807, 3.56756 6.77881, 3.74814 6.7003, 3.92873 6.62178, 4.08649 6.51333, 4.2212 6.37446, 4.3559 6.23583, 4.46288 6.07413, 4.54238 5.88962, 4.62187 5.70511, 4.66162 5.50809, 4.66162 5.29855, 4.66162 5.18102, 4.721 5.12213, 4.83951 5.12189 L 5.00537 5.12189 C 5.13198 5.12213, 5.19528 5.18102, 5.19528 5.29855 Z" stroke="none" fill="#000000" />
			<rect />
		</svg>
	</g>
	<g transform="matrix(1 0 -0 1 136.109 61.0096)">
		<svg width="21.0837173" height="23.9844513">
			<defs />
			<path d="M 5.74035 4.47021 C 5.74035 4.84218, 5.68662 5.20212, 5.57866 5.55004, 5.47095 5.89821, 5.28889 6.2108, 5.03273 6.48806, 4.79571 6.74741, 4.51134 6.93928, 4.17961 7.06343, 3.84813 7.18758, 3.50437 7.24966, 3.1486 7.24966 L -0.00134747 7.24966, -0.00134747 6.73146, 0.774976 6.73146, 0.774976 2.11081, -0.00134747 2.11081, -0.00134747 1.59261, 3.1486 1.59261 C 3.50437 1.59285, 3.84813 1.65763, 4.17961 1.78718, 4.51134 1.91673, 4.79694 2.11498, 5.0369 2.38169, 5.29576 2.67514, 5.47782 3.00295, 5.58283 3.36535, 5.68785 3.72799, 5.74035 4.09628, 5.74035 4.47021 Z M 4.37762 4.47021 C 4.37762 4.31342, 4.37639 4.1559, 4.37369 3.9974, 4.37099 3.83914, 4.35897 3.68284, 4.33738 3.52827, 4.31578 3.37393, 4.28487 3.22794, 4.24438 3.09054, 4.2039 2.95314, 4.14452 2.82555, 4.06625 2.70753, 3.93695 2.50879, 3.76176 2.35985, 3.54069 2.26024, 3.31986 2.16087, 3.0826 2.11106, 2.82914 2.11081 L 2.05674 2.11081, 2.05674 6.73146, 2.82914 6.73146 C 3.0772 6.7317, 3.31177 6.68459, 3.53259 6.59037, 3.75366 6.49616, 3.93155 6.35213, 4.06625 6.15829, 4.14722 6.05132, 4.20733 5.93084, 4.24635 5.79737, 4.2856 5.66389, 4.31578 5.52403, 4.33738 5.37731, 4.35897 5.23083, 4.37099 5.08042, 4.37369 4.92584, 4.37639 4.77151, 4.37762 4.61963, 4.37762 4.47021 Z" stroke="none" fill="#000000" />
			<rect />
		</svg>
	</g>
	<path d="M 0 117.596 L 0 -117.596" fill="none" stroke="#000000" stroke-width="1.10000002" stroke-linecap="round" stroke-linejoin="round" stroke-dasharray="3.8555, 2.7445" transform="matrix(0.454545 0 0 0.454545 143.569 4.91197)" />
	<path d="M 0 -85.2049 L 0 85.2049" fill="none" stroke="#000000" stroke-width="1.10000002" stroke-linecap="round" stroke-linejoin="round" stroke-dasharray="3.8555, 2.7445" transform="matrix(0.454545 0 0 0.454545 74.9081 97.993)" />
	<path d="M 0 117.596 L 0 -117.596" fill="none" stroke="#000000" stroke-width="1.10000002" stroke-linecap="round" stroke-linejoin="round" stroke-dasharray="3.8555, 2.7445" transform="matrix(0.454545 0 0 0.454545 74.9081 5.5383)" />
	<path d="M -26.7113 -18.0419 C -20.7176 -26.9156, -10.7083 -32.2335, -4.20862e-005 -32.2336" fill="none" stroke="#000000" stroke-width="2.20000005" stroke-linecap="round" stroke-linejoin="round" transform="matrix(0.454545 0 0 0.454545 74.9081 58.9909)" />
	<path d="M 14.4086 90.3907 C 9.64332 91.1503, 4.82544 91.5319, 1.72385e-005 91.5319" fill="none" stroke="#000000" stroke-width="2.20000005" stroke-linecap="round" stroke-linejoin="round" transform="matrix(0.454545 0 0 0.454545 74.9081 59.6992)" />
	<path d="M -28.7891 -20.0924 C -22.2227 -29.5009, -11.4733 -35.1072, -3.86118e-005 -35.1072" fill="none" stroke="#000000" stroke-width="2.20000005" stroke-linecap="round" stroke-linejoin="round" transform="matrix(0.454545 0 0 0.454545 143.569 58.3649)" />
	<path d="M 20.0923 -28.7891 C 29.5008 -22.2227, 35.1071 -11.4733, 35.1072 -1.31751e-005" fill="none" stroke="#000000" stroke-width="2.20000005" stroke-linecap="round" stroke-linejoin="round" transform="matrix(0.454545 0 0 0.454545 74.9081 58.9909)" />
	<path d="M -90.3908 14.4087 C -91.1504 9.64338, -91.532 4.82549, -91.532 4.58826e-005" fill="none" stroke="#000000" stroke-width="2.20000005" stroke-linecap="round" stroke-linejoin="round" transform="matrix(0.454545 0 0 0.454545 140.467 59.2634)" />
	<g transform="matrix(1 0 -0 1 63.6788 35.6985)">
		<svg width="21.0837173" height="27.0062103">
			<defs />
			<path d="M 3.4185 2.35814 C 3.48327 2.60693, 3.51541 2.86088, 3.51541 3.11974, 3.51541 3.2012, 3.51272 3.27971, 3.50732 3.35529, 3.48057 3.701, 3.42267 4.0477, 3.3336 4.39562, 3.23668 4.74648, 3.114 5.09416, 2.96581 5.43816, 2.81761 5.7824, 2.62058 6.11266, 2.37522 6.42917, 2.2918 6.53664, 2.1993 6.64288, 2.09821 6.74741, 1.99712 6.85218, 1.88867 6.94566, 1.77286 7.0281, 1.65705 7.11054, 1.53633 7.17801, 1.41095 7.23003, 1.28557 7.28254, 1.15406 7.30855, 1.01666 7.30855, 0.876554 7.30855, 0.755836 7.2818, 0.654747 7.22807, 0.553658 7.17458, 0.466801 7.10539, 0.393928 7.02025, 0.321301 6.93535, 0.261188 6.8404, 0.214078 6.73563, 0.166969 6.6311, 0.128447 6.52364, 0.0987586 6.41347, 0.0315296 6.17032, -0.0023303 5.91907, -0.0023303 5.65972, -0.0023303 5.5763, 0.00306767 5.49385, 0.0138636 5.4124, 0.0354553 5.07232, 0.0933606 4.72833, 0.187579 4.37991, 0.276646 4.02954, 0.396627 3.68284, 0.547524 3.33983, 0.698667 2.99706, 0.899372 2.66582, 1.15013 2.34636, 1.2338 2.23938, 1.32557 2.13265, 1.42518 2.02665, 1.5248 1.92066, 1.63129 1.82644, 1.7444 1.744, 1.85775 1.66156, 1.977 1.59433, 2.10238 1.54182, 2.22776 1.48956, 2.3605 1.4633, 2.5006 1.46306, 2.64095 1.4633, 2.76093 1.49029, 2.86055 1.54378, 2.96016 1.59752, 3.04849 1.66622, 3.12529 1.74989, 3.20233 1.8338, 3.26294 1.92925, 3.30735 2.03647, 3.352 2.14394, 3.38905 2.25116, 3.4185 2.35814 Z M 2.87257 2.44843 C 2.86177 2.3466, 2.84828 2.25116, 2.83208 2.16209, 2.81589 2.07327, 2.79234 1.99598, 2.76142 1.93047, 2.7305 1.86521, 2.69076 1.81466, 2.64217 1.77933, 2.59359 1.744, 2.53176 1.72633, 2.45619 1.72609, 2.29989 1.72633, 2.15562 1.79896, 2.02362 1.94421, 1.89161 2.08947, 1.76354 2.26294, 1.63938 2.46413, 1.4615 2.75219, 1.32409 3.04809, 1.22693 3.35161, 1.12977 3.65536, 1.04634 3.94832, 0.976171 4.23073 L 2.62181 4.23073 C 2.69468 3.93532, 2.76216 3.63426, 2.82399 3.32781, 2.86717 3.12121, 2.88876 2.91707, 2.88876 2.71538, 2.88876 2.62656, 2.88336 2.53774, 2.87257 2.44843 Z M 0.891276 4.54872 C 0.818649 4.84463, 0.7551 5.14299, 0.701121 5.4438, 0.658182 5.66119, 0.636591 5.87858, 0.636591 6.09548, 0.636591 6.17694, 0.63929 6.25546, 0.644687 6.33103, 0.650085 6.43334, 0.662354 6.52903, 0.681001 6.61786, 0.699894 6.70692, 0.724921 6.78347, 0.755836 6.84751, 0.786752 6.9118, 0.827972 6.96136, 0.879253 6.99669, 0.930533 7.03202, 0.99261 7.04969, 1.06524 7.04945, 1.21883 7.04969, 1.36237 6.9778, 1.49585 6.83377, 1.62932 6.68999, 1.75519 6.51701, 1.87395 6.31532, 2.05183 6.02236, 2.18924 5.72548, 2.2864 5.42442, 2.38356 5.1236, 2.46699 4.83162, 2.53691 4.54872 Z" stroke="none" fill="#000000" />
			<path d="M 1.01686 1.3702 C 0.739168 1.3614, 0.469035 1.35701, 0.206321 1.35701, -0.0562546 1.35701, -0.326388 1.3614, -0.604078 1.3702 L -0.604078 1.18113, -0.447851 1.18113 C -0.398112 1.18127, -0.351257 1.18058, -0.307563 1.17907, -0.263732 1.1777, -0.222237 1.17399, -0.18294 1.16808, -0.143642 1.16231, -0.109704 1.1564, -0.0811244 1.15035, -0.0569416 1.1461, -0.0370183 1.13263, -0.021217 1.10982, -0.00527835 1.08715, 0.00255358 1.06187, 0.00255358 1.03384 L 0.00255358 -1.4438 C -0.0727429 -1.40698, -0.165627 -1.37908, -0.275824 -1.36012, -0.38602 -1.34102, -0.50666 -1.33154, -0.638016 -1.33168 L -0.638016 -1.51855 C -0.45692 -1.51841, -0.289701 -1.53998, -0.136498 -1.58326, 0.016706 -1.62641, 0.149162 -1.70748, 0.260733 -1.82633 L 0.330945 -1.82633 C 0.380685 -1.82619, 0.405555 -1.80201, 0.405555 -1.75378 L 0.405555 1.03384 C 0.405555 1.06324, 0.413112 1.08894, 0.428226 1.11092, 0.44334 1.1329, 0.465325 1.1461, 0.493904 1.15035, 0.518087 1.1564, 0.54914 1.16231, 0.586788 1.16808, 0.624437 1.17399, 0.667031 1.1777, 0.714573 1.17907, 0.762114 1.18058, 0.808556 1.18127, 0.853899 1.18113 L 1.01686 1.18113, 1.01686 1.3702 Z" stroke="none" fill="#000000" transform="matrix(1.12 0 0 1 4.57332 6.98842)" />
			<rect />
		</svg>
	</g>
	<g transform="matrix(1 0 -0 1 90.7243 45.962)">
		<svg width="21.0837173" height="27.0062103">
			<defs />
			<path d="M 3.4185 2.35814 C 3.48327 2.60693, 3.51541 2.86088, 3.51541 3.11974, 3.51541 3.2012, 3.51272 3.27971, 3.50732 3.35529, 3.48057 3.701, 3.42267 4.0477, 3.3336 4.39562, 3.23668 4.74648, 3.114 5.09416, 2.96581 5.43816, 2.81761 5.7824, 2.62058 6.11266, 2.37522 6.42917, 2.2918 6.53664, 2.1993 6.64288, 2.09821 6.74741, 1.99712 6.85218, 1.88867 6.94566, 1.77286 7.0281, 1.65705 7.11054, 1.53633 7.17801, 1.41095 7.23003, 1.28557 7.28254, 1.15406 7.30855, 1.01666 7.30855, 0.876554 7.30855, 0.755836 7.2818, 0.654747 7.22807, 0.553658 7.17458, 0.466801 7.10539, 0.393928 7.02025, 0.321301 6.93535, 0.261188 6.8404, 0.214078 6.73563, 0.166969 6.6311, 0.128447 6.52364, 0.0987586 6.41347, 0.0315296 6.17032, -0.0023303 5.91907, -0.0023303 5.65972, -0.0023303 5.5763, 0.00306767 5.49385, 0.0138636 5.4124, 0.0354553 5.07232, 0.0933606 4.72833, 0.187579 4.37991, 0.276646 4.02954, 0.396627 3.68284, 0.547524 3.33983, 0.698667 2.99706, 0.899372 2.66582, 1.15013 2.34636, 1.2338 2.23938, 1.32557 2.13265, 1.42518 2.02665, 1.5248 1.92066, 1.63129 1.82644, 1.7444 1.744, 1.85775 1.66156, 1.977 1.59433, 2.10238 1.54182, 2.22776 1.48956, 2.3605 1.4633, 2.5006 1.46306, 2.64095 1.4633, 2.76093 1.49029, 2.86055 1.54378, 2.96016 1.59752, 3.04849 1.66622, 3.12529 1.74989, 3.20233 1.8338, 3.26294 1.92925, 3.30735 2.03647, 3.352 2.14394, 3.38905 2.25116, 3.4185 2.35814 Z M 2.87257 2.44843 C 2.86177 2.3466, 2.84828 2.25116, 2.83208 2.16209, 2.81589 2.07327, 2.79234 1.99598, 2.76142 1.93047, 2.7305 1.86521, 2.69076 1.81466, 2.64217 1.77933, 2.59359 1.744, 2.53176 1.72633, 2.45619 1.72609, 2.29989 1.72633, 2.15562 1.79896, 2.02362 1.94421, 1.89161 2.08947, 1.76354 2.26294, 1.63938 2.46413, 1.4615 2.75219, 1.32409 3.04809, 1.22693 3.35161, 1.12977 3.65536, 1.04634 3.94832, 0.976171 4.23073 L 2.62181 4.23073 C 2.69468 3.93532, 2.76216 3.63426, 2.82399 3.32781, 2.86717 3.12121, 2.88876 2.91707, 2.88876 2.71538, 2.88876 2.62656, 2.88336 2.53774, 2.87257 2.44843 Z M 0.891276 4.54872 C 0.818649 4.84463, 0.7551 5.14299, 0.701121 5.4438, 0.658182 5.66119, 0.636591 5.87858, 0.636591 6.09548, 0.636591 6.17694, 0.63929 6.25546, 0.644687 6.33103, 0.650085 6.43334, 0.662354 6.52903, 0.681001 6.61786, 0.699894 6.70692, 0.724921 6.78347, 0.755836 6.84751, 0.786752 6.9118, 0.827972 6.96136, 0.879253 6.99669, 0.930533 7.03202, 0.99261 7.04969, 1.06524 7.04945, 1.21883 7.04969, 1.36237 6.9778, 1.49585 6.83377, 1.62932 6.68999, 1.75519 6.51701, 1.87395 6.31532, 2.05183 6.02236, 2.18924 5.72548, 2.2864 5.42442, 2.38356 5.1236, 2.46699 4.83162, 2.53691 4.54872 Z" stroke="none" fill="#000000" />
			<path d="M 1.01686 1.3702 C 0.739168 1.3614, 0.469035 1.35701, 0.206321 1.35701, -0.0562546 1.35701, -0.326388 1.3614, -0.604078 1.3702 L -0.604078 1.18113, -0.447851 1.18113 C -0.398112 1.18127, -0.351257 1.18058, -0.307563 1.17907, -0.263732 1.1777, -0.222237 1.17399, -0.18294 1.16808, -0.143642 1.16231, -0.109704 1.1564, -0.0811244 1.15035, -0.0569416 1.1461, -0.0370183 1.13263, -0.021217 1.10982, -0.00527835 1.08715, 0.00255358 1.06187, 0.00255358 1.03384 L 0.00255358 -1.4438 C -0.0727429 -1.40698, -0.165627 -1.37908, -0.275824 -1.36012, -0.38602 -1.34102, -0.50666 -1.33154, -0.638016 -1.33168 L -0.638016 -1.51855 C -0.45692 -1.51841, -0.289701 -1.53998, -0.136498 -1.58326, 0.016706 -1.62641, 0.149162 -1.70748, 0.260733 -1.82633 L 0.330945 -1.82633 C 0.380685 -1.82619, 0.405555 -1.80201, 0.405555 -1.75378 L 0.405555 1.03384 C 0.405555 1.06324, 0.413112 1.08894, 0.428226 1.11092, 0.44334 1.1329, 0.465325 1.1461, 0.493904 1.15035, 0.518087 1.1564, 0.54914 1.16231, 0.586788 1.16808, 0.624437 1.17399, 0.667031 1.1777, 0.714573 1.17907, 0.762114 1.18058, 0.808556 1.18127, 0.853899 1.18113 L 1.01686 1.18113, 1.01686 1.3702 Z" stroke="none" fill="#000000" transform="matrix(1.12 0 0 1 4.57332 6.98842)" />
			<rect />
		</svg>
	</g>
	<g transform="matrix(1 0 -0 1 132.77 31.3214)">
		<svg width="21.0837173" height="27.0062103">
			<defs />
			<path d="M 3.4185 2.35814 C 3.48327 2.60693, 3.51541 2.86088, 3.51541 3.11974, 3.51541 3.2012, 3.51272 3.27971, 3.50732 3.35529, 3.48057 3.701, 3.42267 4.0477, 3.3336 4.39562, 3.23668 4.74648, 3.114 5.09416, 2.96581 5.43816, 2.81761 5.7824, 2.62058 6.11266, 2.37522 6.42917, 2.2918 6.53664, 2.1993 6.64288, 2.09821 6.74741, 1.99712 6.85218, 1.88867 6.94566, 1.77286 7.0281, 1.65705 7.11054, 1.53633 7.17801, 1.41095 7.23003, 1.28557 7.28254, 1.15406 7.30855, 1.01666 7.30855, 0.876554 7.30855, 0.755836 7.2818, 0.654747 7.22807, 0.553658 7.17458, 0.466801 7.10539, 0.393928 7.02025, 0.321301 6.93535, 0.261188 6.8404, 0.214078 6.73563, 0.166969 6.6311, 0.128447 6.52364, 0.0987586 6.41347, 0.0315296 6.17032, -0.0023303 5.91907, -0.0023303 5.65972, -0.0023303 5.5763, 0.00306767 5.49385, 0.0138636 5.4124, 0.0354553 5.07232, 0.0933606 4.72833, 0.187579 4.37991, 0.276646 4.02954, 0.396627 3.68284, 0.547524 3.33983, 0.698667 2.99706, 0.899372 2.66582, 1.15013 2.34636, 1.2338 2.23938, 1.32557 2.13265, 1.42518 2.02665, 1.5248 1.92066, 1.63129 1.82644, 1.7444 1.744, 1.85775 1.66156, 1.977 1.59433, 2.10238 1.54182, 2.22776 1.48956, 2.3605 1.4633, 2.5006 1.46306, 2.64095 1.4633, 2.76093 1.49029, 2.86055 1.54378, 2.96016 1.59752, 3.04849 1.66622, 3.12529 1.74989, 3.20233 1.8338, 3.26294 1.92925, 3.30735 2.03647, 3.352 2.14394, 3.38905 2.25116, 3.4185 2.35814 Z M 2.87257 2.44843 C 2.86177 2.3466, 2.84828 2.25116, 2.83208 2.16209, 2.81589 2.07327, 2.79234 1.99598, 2.76142 1.93047, 2.7305 1.86521, 2.69076 1.81466, 2.64217 1.77933, 2.59359 1.744, 2.53176 1.72633, 2.45619 1.72609, 2.29989 1.72633, 2.15562 1.79896, 2.02362 1.94421, 1.89161 2.08947, 1.76354 2.26294, 1.63938 2.46413, 1.4615 2.75219, 1.32409 3.04809, 1.22693 3.35161, 1.12977 3.65536, 1.04634 3.94832, 0.976171 4.23073 L 2.62181 4.23073 C 2.69468 3.93532, 2.76216 3.63426, 2.82399 3.32781, 2.86717 3.12121, 2.88876 2.91707, 2.88876 2.71538, 2.88876 2.62656, 2.88336 2.53774, 2.87257 2.44843 Z M 0.891276 4.54872 C 0.818649 4.84463, 0.7551 5.14299, 0.701121 5.4438, 0.658182 5.66119, 0.636591 5.87858, 0.636591 6.09548, 0.636591 6.17694, 0.63929 6.25546, 0.644687 6.33103, 0.650085 6.43334, 0.662354 6.52903, 0.681001 6.61786, 0.699894 6.70692, 0.724921 6.78347, 0.755836 6.84751, 0.786752 6.9118, 0.827972 6.96136, 0.879253 6.99669, 0.930533 7.03202, 0.99261 7.04969, 1.06524 7.04945, 1.21883 7.04969, 1.36237 6.9778, 1.49585 6.83377, 1.62932 6.68999, 1.75519 6.51701, 1.87395 6.31532, 2.05183 6.02236, 2.18924 5.72548, 2.2864 5.42442, 2.38356 5.1236, 2.46699 4.83162, 2.53691 4.54872 Z" stroke="none" fill="#000000" />
			<path d="M 1.01686 1.3702 C 0.739168 1.3614, 0.469035 1.35701, 0.206321 1.35701, -0.0562546 1.35701, -0.326388 1.3614, -0.604078 1.3702 L -0.604078 1.18113, -0.447851 1.18113 C -0.398112 1.18127, -0.351257 1.18058, -0.307563 1.17907, -0.263732 1.1777, -0.222237 1.17399, -0.18294 1.16808, -0.143642 1.16231, -0.109704 1.1564, -0.0811244 1.15035, -0.0569416 1.1461, -0.0370183 1.13263, -0.021217 1.10982, -0.00527835 1.08715, 0.00255358 1.06187, 0.00255358 1.03384 L 0.00255358 -1.4438 C -0.0727429 -1.40698, -0.165627 -1.37908, -0.275824 -1.36012, -0.38602 -1.34102, -0.50666 -1.33154, -0.638016 -1.33168 L -0.638016 -1.51855 C -0.45692 -1.51841, -0.289701 -1.53998, -0.136498 -1.58326, 0.016706 -1.62641, 0.149162 -1.70748, 0.260733 -1.82633 L 0.330945 -1.82633 C 0.380685 -1.82619, 0.405555 -1.80201, 0.405555 -1.75378 L 0.405555 1.03384 C 0.405555 1.06324, 0.413112 1.08894, 0.428226 1.11092, 0.44334 1.1329, 0.465325 1.1461, 0.493904 1.15035, 0.518087 1.1564, 0.54914 1.16231, 0.586788 1.16808, 0.624437 1.17399, 0.667031 1.1777, 0.714573 1.17907, 0.762114 1.18058, 0.808556 1.18127, 0.853899 1.18113 L 1.01686 1.18113, 1.01686 1.3702 Z" stroke="none" fill="#000000" transform="matrix(1.12 0 0 1 4.57332 6.98842)" />
			<rect />
		</svg>
	</g>
	<g transform="matrix(1 0 -0 1 75.1162 102.289)">
		<svg width="23.9302292" height="27.0062103">
			<defs />
			<path d="M 3.4185 2.35814 C 3.48327 2.60693, 3.51541 2.86088, 3.51541 3.11974, 3.51541 3.2012, 3.51272 3.27971, 3.50732 3.35529, 3.48057 3.701, 3.42267 4.0477, 3.3336 4.39562, 3.23668 4.74648, 3.114 5.09416, 2.96581 5.43816, 2.81761 5.7824, 2.62058 6.11266, 2.37522 6.42917, 2.2918 6.53664, 2.1993 6.64288, 2.09821 6.74741, 1.99712 6.85218, 1.88867 6.94566, 1.77286 7.0281, 1.65705 7.11054, 1.53633 7.17801, 1.41095 7.23003, 1.28557 7.28254, 1.15406 7.30855, 1.01666 7.30855, 0.876554 7.30855, 0.755836 7.2818, 0.654747 7.22807, 0.553658 7.17458, 0.466801 7.10539, 0.393928 7.02025, 0.321301 6.93535, 0.261188 6.8404, 0.214078 6.73563, 0.166969 6.6311, 0.128447 6.52364, 0.0987586 6.41347, 0.0315296 6.17032, -0.0023303 5.91907, -0.0023303 5.65972, -0.0023303 5.5763, 0.00306767 5.49385, 0.0138636 5.4124, 0.0354553 5.07232, 0.0933606 4.72833, 0.187579 4.37991, 0.276646 4.02954, 0.396627 3.68284, 0.547524 3.33983, 0.698667 2.99706, 0.899372 2.66582, 1.15013 2.34636, 1.2338 2.23938, 1.32557 2.13265, 1.42518 2.02665, 1.5248 1.92066, 1.63129 1.82644, 1.7444 1.744, 1.85775 1.66156, 1.977 1.59433, 2.10238 1.54182, 2.22776 1.48956, 2.3605 1.4633, 2.5006 1.46306, 2.64095 1.4633, 2.76093 1.49029, 2.86055 1.54378, 2.96016 1.59752, 3.04849 1.66622, 3.12529 1.74989, 3.20233 1.8338, 3.26294 1.92925, 3.30735 2.03647, 3.352 2.14394, 3.38905 2.25116, 3.4185 2.35814 Z M 2.87257 2.44843 C 2.86177 2.3466, 2.84828 2.25116, 2.83208 2.16209, 2.81589 2.07327, 2.79234 1.99598, 2.76142 1.93047, 2.7305 1.86521, 2.69076 1.81466, 2.64217 1.77933, 2.59359 1.744, 2.53176 1.72633, 2.45619 1.72609, 2.29989 1.72633, 2.15562 1.79896, 2.02362 1.94421, 1.89161 2.08947, 1.76354 2.26294, 1.63938 2.46413, 1.4615 2.75219, 1.32409 3.04809, 1.22693 3.35161, 1.12977 3.65536, 1.04634 3.94832, 0.976171 4.23073 L 2.62181 4.23073 C 2.69468 3.93532, 2.76216 3.63426, 2.82399 3.32781, 2.86717 3.12121, 2.88876 2.91707, 2.88876 2.71538, 2.88876 2.62656, 2.88336 2.53774, 2.87257 2.44843 Z M 0.891276 4.54872 C 0.818649 4.84463, 0.7551 5.14299, 0.701121 5.4438, 0.658182 5.66119, 0.636591 5.87858, 0.636591 6.09548, 0.636591 6.17694, 0.63929 6.25546, 0.644687 6.33103, 0.650085 6.43334, 0.662354 6.52903, 0.681001 6.61786, 0.699894 6.70692, 0.724921 6.78347, 0.755836 6.84751, 0.786752 6.9118, 0.827972 6.96136, 0.879253 6.99669, 0.930533 7.03202, 0.99261 7.04969, 1.06524 7.04945, 1.21883 7.04969, 1.36237 6.9778, 1.49585 6.83377, 1.62932 6.68999, 1.75519 6.51701, 1.87395 6.31532, 2.05183 6.02236, 2.18924 5.72548, 2.2864 5.42442, 2.38356 5.1236, 2.46699 4.83162, 2.53691 4.54872 Z" stroke="none" fill="#000000" />
			<path d="M 1.02488 1.3702 L -0.817963 1.3702, -0.817963 1.24928 C -0.817963 1.24063, -0.813429 1.22744, -0.804361 1.20971 L -0.0640368 0.405085 C 0.0236259 0.308491, 0.11225 0.209561, 0.202111 0.108433, 0.291973 0.00730479, 0.372216 -0.0960218, 0.443115 -0.201547, 0.514015 -0.307072, 0.570625 -0.415895, 0.612944 -0.528015, 0.655264 -0.640135, 0.676287 -0.757752, 0.676287 -0.881001, 0.676287 -0.984878, 0.662822 -1.08202, 0.635616 -1.17216, 0.60841 -1.26229, 0.569251 -1.34144, 0.517862 -1.40959, 0.466474 -1.47774, 0.402307 -1.5327, 0.325361 -1.57447, 0.248416 -1.61624, 0.159379 -1.63713, 0.0582513 -1.63726, -0.0926164 -1.63713, -0.225897 -1.59206, -0.341315 -1.50192, -0.456733 -1.41179, -0.533403 -1.31244, -0.571189 -1.20417, -0.578609 -1.20115, -0.566517 -1.19964, -0.534915 -1.19977 L -0.496442 -1.19977 C -0.451099 -1.18933, -0.41194 -1.17353, -0.378688 -1.15237, -0.345437 -1.13107, -0.317544 -1.10181, -0.294873 -1.06443, -0.272201 -1.02706, -0.260934 -0.981992, -0.260934 -0.929367, -0.260934 -0.841292, -0.289514 -0.773828, -0.346948 -0.726973, -0.404382 -0.679982, -0.468549 -0.656623, -0.539449 -0.656761, -0.607326 -0.656623, -0.670668 -0.679982, -0.729614 -0.726973, -0.788422 -0.773828, -0.817963 -0.841292, -0.817963 -0.929367, -0.817963 -1.05234, -0.793781 -1.16886, -0.745415 -1.27878, -0.697049 -1.3887, -0.631508 -1.48392, -0.548517 -1.56458, -0.465526 -1.6451, -0.367421 -1.70885, -0.254202 -1.75584, -0.140982 -1.8027, -0.0208925 -1.82619, 0.105793 -1.82633, 0.262706 -1.82619, 0.406566 -1.80311, 0.537098 -1.75694, 0.667631 -1.71077, 0.778927 -1.64441, 0.870986 -1.55798, 0.963046 -1.47142, 1.03518 -1.37139, 1.08726 -1.2579, 1.13933 -1.14426, 1.1653 -1.01868, 1.1653 -0.881001, 1.1653 -0.728485, 1.13068 -0.58806, 1.06115 -0.459863, 0.991763 -0.331529, 0.905749 -0.213913, 0.803109 -0.107014, 0.70047 2.24113e-005, 0.591372 0.100738, 0.475954 0.195271, 0.360536 0.289804, 0.255973 0.381726, 0.162402 0.471038 L -0.358353 0.961289, 0.323163 0.961289 C 0.418245 0.961427, 0.507007 0.96074, 0.589174 0.959228, 0.671478 0.957854, 0.741278 0.954831, 0.798575 0.950434, 0.856009 0.946038, 0.885413 0.943152, 0.886787 0.941503, 0.898879 0.931336, 0.910283 0.910863, 0.920863 0.880084, 0.931443 0.849306, 0.941199 0.813032, 0.950267 0.771262, 0.959336 0.729491, 0.968404 0.687034, 0.977473 0.643752, 0.986541 0.600608, 0.994786 0.553204, 1.00234 0.501816 L 1.16984 0.501816 Z" stroke="none" fill="#000000" transform="matrix(1.12 0 0 1 4.75456 6.98842)" />
			<rect />
		</svg>
	</g>
	<g transform="matrix(1 0 -0 1 81.447 58.8803)">
		<svg width="23.9302292" height="27.0062103">
			<defs />
			<path d="M 3.4185 2.35814 C 3.48327 2.60693, 3.51541 2.86088, 3.51541 3.11974, 3.51541 3.2012, 3.51272 3.27971, 3.50732 3.35529, 3.48057 3.701, 3.42267 4.0477, 3.3336 4.39562, 3.23668 4.74648, 3.114 5.09416, 2.96581 5.43816, 2.81761 5.7824, 2.62058 6.11266, 2.37522 6.42917, 2.2918 6.53664, 2.1993 6.64288, 2.09821 6.74741, 1.99712 6.85218, 1.88867 6.94566, 1.77286 7.0281, 1.65705 7.11054, 1.53633 7.17801, 1.41095 7.23003, 1.28557 7.28254, 1.15406 7.30855, 1.01666 7.30855, 0.876554 7.30855, 0.755836 7.2818, 0.654747 7.22807, 0.553658 7.17458, 0.466801 7.10539, 0.393928 7.02025, 0.321301 6.93535, 0.261188 6.8404, 0.214078 6.73563, 0.166969 6.6311, 0.128447 6.52364, 0.0987586 6.41347, 0.0315296 6.17032, -0.0023303 5.91907, -0.0023303 5.65972, -0.0023303 5.5763, 0.00306767 5.49385, 0.0138636 5.4124, 0.0354553 5.07232, 0.0933606 4.72833, 0.187579 4.37991, 0.276646 4.02954, 0.396627 3.68284, 0.547524 3.33983, 0.698667 2.99706, 0.899372 2.66582, 1.15013 2.34636, 1.2338 2.23938, 1.32557 2.13265, 1.42518 2.02665, 1.5248 1.92066, 1.63129 1.82644, 1.7444 1.744, 1.85775 1.66156, 1.977 1.59433, 2.10238 1.54182, 2.22776 1.48956, 2.3605 1.4633, 2.5006 1.46306, 2.64095 1.4633, 2.76093 1.49029, 2.86055 1.54378, 2.96016 1.59752, 3.04849 1.66622, 3.12529 1.74989, 3.20233 1.8338, 3.26294 1.92925, 3.30735 2.03647, 3.352 2.14394, 3.38905 2.25116, 3.4185 2.35814 Z M 2.87257 2.44843 C 2.86177 2.3466, 2.84828 2.25116, 2.83208 2.16209, 2.81589 2.07327, 2.79234 1.99598, 2.76142 1.93047, 2.7305 1.86521, 2.69076 1.81466, 2.64217 1.77933, 2.59359 1.744, 2.53176 1.72633, 2.45619 1.72609, 2.29989 1.72633, 2.15562 1.79896, 2.02362 1.94421, 1.89161 2.08947, 1.76354 2.26294, 1.63938 2.46413, 1.4615 2.75219, 1.32409 3.04809, 1.22693 3.35161, 1.12977 3.65536, 1.04634 3.94832, 0.976171 4.23073 L 2.62181 4.23073 C 2.69468 3.93532, 2.76216 3.63426, 2.82399 3.32781, 2.86717 3.12121, 2.88876 2.91707, 2.88876 2.71538, 2.88876 2.62656, 2.88336 2.53774, 2.87257 2.44843 Z M 0.891276 4.54872 C 0.818649 4.84463, 0.7551 5.14299, 0.701121 5.4438, 0.658182 5.66119, 0.636591 5.87858, 0.636591 6.09548, 0.636591 6.17694, 0.63929 6.25546, 0.644687 6.33103, 0.650085 6.43334, 0.662354 6.52903, 0.681001 6.61786, 0.699894 6.70692, 0.724921 6.78347, 0.755836 6.84751, 0.786752 6.9118, 0.827972 6.96136, 0.879253 6.99669, 0.930533 7.03202, 0.99261 7.04969, 1.06524 7.04945, 1.21883 7.04969, 1.36237 6.9778, 1.49585 6.83377, 1.62932 6.68999, 1.75519 6.51701, 1.87395 6.31532, 2.05183 6.02236, 2.18924 5.72548, 2.2864 5.42442, 2.38356 5.1236, 2.46699 4.83162, 2.53691 4.54872 Z" stroke="none" fill="#000000" />
			<path d="M 1.02488 1.3702 L -0.817963 1.3702, -0.817963 1.24928 C -0.817963 1.24063, -0.813429 1.22744, -0.804361 1.20971 L -0.0640368 0.405085 C 0.0236259 0.308491, 0.11225 0.209561, 0.202111 0.108433, 0.291973 0.00730479, 0.372216 -0.0960218, 0.443115 -0.201547, 0.514015 -0.307072, 0.570625 -0.415895, 0.612944 -0.528015, 0.655264 -0.640135, 0.676287 -0.757752, 0.676287 -0.881001, 0.676287 -0.984878, 0.662822 -1.08202, 0.635616 -1.17216, 0.60841 -1.26229, 0.569251 -1.34144, 0.517862 -1.40959, 0.466474 -1.47774, 0.402307 -1.5327, 0.325361 -1.57447, 0.248416 -1.61624, 0.159379 -1.63713, 0.0582513 -1.63726, -0.0926164 -1.63713, -0.225897 -1.59206, -0.341315 -1.50192, -0.456733 -1.41179, -0.533403 -1.31244, -0.571189 -1.20417, -0.578609 -1.20115, -0.566517 -1.19964, -0.534915 -1.19977 L -0.496442 -1.19977 C -0.451099 -1.18933, -0.41194 -1.17353, -0.378688 -1.15237, -0.345437 -1.13107, -0.317544 -1.10181, -0.294873 -1.06443, -0.272201 -1.02706, -0.260934 -0.981992, -0.260934 -0.929367, -0.260934 -0.841292, -0.289514 -0.773828, -0.346948 -0.726973, -0.404382 -0.679982, -0.468549 -0.656623, -0.539449 -0.656761, -0.607326 -0.656623, -0.670668 -0.679982, -0.729614 -0.726973, -0.788422 -0.773828, -0.817963 -0.841292, -0.817963 -0.929367, -0.817963 -1.05234, -0.793781 -1.16886, -0.745415 -1.27878, -0.697049 -1.3887, -0.631508 -1.48392, -0.548517 -1.56458, -0.465526 -1.6451, -0.367421 -1.70885, -0.254202 -1.75584, -0.140982 -1.8027, -0.0208925 -1.82619, 0.105793 -1.82633, 0.262706 -1.82619, 0.406566 -1.80311, 0.537098 -1.75694, 0.667631 -1.71077, 0.778927 -1.64441, 0.870986 -1.55798, 0.963046 -1.47142, 1.03518 -1.37139, 1.08726 -1.2579, 1.13933 -1.14426, 1.1653 -1.01868, 1.1653 -0.881001, 1.1653 -0.728485, 1.13068 -0.58806, 1.06115 -0.459863, 0.991763 -0.331529, 0.905749 -0.213913, 0.803109 -0.107014, 0.70047 2.24113e-005, 0.591372 0.100738, 0.475954 0.195271, 0.360536 0.289804, 0.255973 0.381726, 0.162402 0.471038 L -0.358353 0.961289, 0.323163 0.961289 C 0.418245 0.961427, 0.507007 0.96074, 0.589174 0.959228, 0.671478 0.957854, 0.741278 0.954831, 0.798575 0.950434, 0.856009 0.946038, 0.885413 0.943152, 0.886787 0.941503, 0.898879 0.931336, 0.910283 0.910863, 0.920863 0.880084, 0.931443 0.849306, 0.941199 0.813032, 0.950267 0.771262, 0.959336 0.729491, 0.968404 0.687034, 0.977473 0.643752, 0.986541 0.600608, 0.994786 0.553204, 1.00234 0.501816 L 1.16984 0.501816 Z" stroke="none" fill="#000000" transform="matrix(1.12 0 0 1 4.75456 6.98842)" />
			<rect />
		</svg>
	</g>
	<ellipse cx="773.61997079849243" cy="446.61078500747681" rx="5.7750000953674316" ry="5.7750000953674316" stroke="none" fill="#000000" transform="matrix(0.454545 0 0 0.454545 -275 -132.727)" />
	<ellipse cx="820.20078134536743" cy="350.15817880630493" rx="5.7750000953674316" ry="5.7750000953674316" stroke="none" fill="#000000" transform="matrix(0.454545 0 0 0.454545 -275 -132.727)" />
	<ellipse cx="769.79782724380493" cy="421.78003549575806" rx="5.7750000953674316" ry="5.7750000953674316" stroke="none" fill="#000000" transform="matrix(0.454545 0 0 0.454545 -275 -132.727)" />
	<ellipse cx="920.85184335708618" cy="420.40213632583618" rx="5.7750000953674316" ry="5.7750000953674316" stroke="none" fill="#000000" transform="matrix(0.454545 0 0 0.454545 -275 -132.727)" />
</svg>
